<?xml version="1.0" encoding="UTF-8" ?>
<!DOCTYPE svg PUBLIC "-//W3C//DTD SVG 1.1//EN" "http://www.w3.org/Graphics/SVG/1.1/DTD/svg11.dtd">
<svg width="38pt" height="38pt" viewBox="0 0 38 38" version="1.1" xmlns="http://www.w3.org/2000/svg">
<g id="#ffffffff">
<path fill="#ffffff" opacity="1.00" d=" M 23.92 7.96 C 26.50 5.47 28.87 2.58 32.19 1.07 C 33.93 0.39 36.48 -0.13 37.46 1.98 C 37.96 7.25 33.16 10.60 29.92 13.96 C 31.42 20.34 32.84 26.75 34.34 33.13 C 32.87 34.32 31.38 35.49 29.87 36.63 C 26.96 31.90 24.35 27.00 21.77 22.09 C 19.49 24.48 17.24 26.90 14.90 29.23 C 15.38 31.10 15.85 32.97 16.36 34.83 C 15.25 35.89 14.16 36.96 13.04 38.00 L 12.51 38.00 C 10.64 35.71 9.06 33.19 7.04 31.03 C 4.87 28.98 2.32 27.38 0.00 25.51 L 0.00 24.95 C 1.05 23.83 2.12 22.74 3.19 21.63 C 5.10 22.16 7.01 22.67 8.92 23.18 C 11.25 20.86 13.57 18.54 15.88 16.21 C 10.99 13.60 6.09 10.98 1.33 8.11 C 2.79 6.60 4.28 5.10 5.77 3.62 C 11.81 5.11 17.87 6.55 23.92 7.96 Z" />
</g>
</svg>
