<?xml version="1.0" encoding="UTF-8" ?>
<!DOCTYPE svg PUBLIC "-//W3C//DTD SVG 1.1//EN" "http://www.w3.org/Graphics/SVG/1.1/DTD/svg11.dtd">
<svg width="41pt" height="42pt" viewBox="0 0 41 42" version="1.1" xmlns="http://www.w3.org/2000/svg">
<g id="#ffffffff">
<path fill="#ffffff" opacity="1.00" d=" M 9.54 3.49 C 16.04 -0.75 25.02 -0.77 31.51 3.52 C 37.04 6.94 40.48 13.15 41.00 19.58 L 41.00 22.45 C 40.25 31.93 32.44 40.38 22.87 41.29 C 11.63 42.87 0.66 33.61 0.00 22.33 L 0.00 19.52 C 0.55 13.09 4.00 6.90 9.54 3.49 M 17.44 6.62 C 9.77 8.14 4.35 16.55 6.37 24.16 C 7.95 31.78 16.38 37.14 23.93 35.02 C 31.34 33.39 36.44 25.30 34.70 17.91 C 33.33 10.26 25.03 4.72 17.44 6.62 Z" />
<path fill="#ffffff" opacity="1.00" d=" M 20.53 10.68 C 21.40 10.66 23.14 10.63 24.00 10.61 C 23.98 15.13 24.05 19.65 23.94 24.17 C 20.57 24.31 17.20 24.26 13.82 24.28 C 13.81 23.43 13.77 21.73 13.76 20.89 C 16.01 20.73 18.28 20.71 20.54 20.72 C 20.52 17.37 20.54 14.02 20.53 10.68 Z" />
</g>
</svg>
