<?xml version="1.0" encoding="UTF-8" ?>
<!DOCTYPE svg PUBLIC "-//W3C//DTD SVG 1.1//EN" "http://www.w3.org/Graphics/SVG/1.1/DTD/svg11.dtd">
<svg width="48pt" height="49pt" viewBox="0 0 48 49" version="1.1" xmlns="http://www.w3.org/2000/svg">
<g id="#ffffffff">
<path fill="#ffffff" opacity="1.00" d=" M 24.31 0.00 L 24.71 0.00 C 24.56 0.20 24.26 0.60 24.11 0.79 C 36.52 0.56 47.44 11.18 48.00 23.48 L 48.00 26.45 C 47.34 32.88 44.52 39.21 39.45 43.35 C 32.81 49.02 22.97 50.34 14.96 46.98 C 6.66 43.71 0.77 35.49 0.00 26.65 L 0.00 23.21 C 0.76 11.43 11.24 0.99 23.17 1.06 C 23.45 0.79 24.02 0.26 24.31 0.00 M 14.83 6.44 C 16.05 8.59 18.06 10.09 19.79 11.79 C 22.77 11.04 25.87 11.11 28.86 11.76 C 30.58 10.07 32.28 8.36 33.98 6.64 C 28.01 3.57 20.86 3.58 14.83 6.44 M 21.08 15.09 C 13.98 17.04 11.49 27.15 17.00 32.08 C 21.93 37.62 32.09 35.10 34.06 28.01 C 36.94 20.53 28.57 12.09 21.08 15.09 M 37.44 20.28 C 37.83 23.29 38.29 26.35 37.29 29.34 C 39.09 31.09 40.67 33.05 42.56 34.71 C 44.94 28.39 45.37 21.31 42.29 15.13 C 40.62 16.80 38.96 18.47 37.44 20.28 M 5.87 15.11 C 2.78 21.08 2.57 28.35 5.80 34.30 C 7.82 32.87 9.62 31.15 11.25 29.28 C 10.34 26.35 10.28 23.24 11.23 20.31 C 9.47 18.55 7.70 16.79 5.87 15.11 M 14.76 43.18 C 20.78 46.23 27.98 46.13 33.98 43.08 C 32.25 41.36 30.54 39.63 28.79 37.92 C 25.83 38.69 22.72 38.68 19.75 37.93 C 18.01 39.60 16.20 41.23 14.76 43.18 Z" />
</g>
</svg>
