<svg xmlns="http://www.w3.org/2000/svg" class="svg-icon-lib">
    <symbol id="arrow-down" viewBox="0 0 128 128">
      <title>arrow-down icon</title>
      <path d="M111 40.5L64 87.499M64 87.499L17 40.5"/>
    </symbol>
    <symbol id="arrow-up" viewBox="0 0 128 128">
      <title>arrow-up icon</title>
      <path d="M17 87.499L64 40.5M64 40.5l47 46.999"/>
    </symbol>
    <symbol id="facebook" viewBox="0 0 56.693 56.693">
      <title>facebook icon</title>
      <path d="M40.43 21.739h-7.645v-5.014c0-1.883 1.248-2.322 2.127-2.322h5.395V6.125l-7.43-.029c-8.248 0-10.125 6.174-10.125 10.125v5.518h-4.77v8.53h4.77v24.137h10.033V30.269h6.77l.875-8.53z"/>
    </symbol>
    <symbol id="instagram" viewBox="0 0 56.693 56.693">
      <title>instagram icon</title>
      <path d="M43.414 4.831H13c-5.283 0-9.581 4.297-9.581 9.58v30.415c0 5.283 4.298 9.58 9.581 9.58h30.415c5.283 0 9.58-4.297 9.58-9.58V14.41c-.001-5.283-4.298-9.579-9.581-9.579zm2.748 5.713l1.096-.004v8.403l-8.375.027-.029-8.402 7.308-.024zM21.131 24.53c1.588-2.197 4.164-3.638 7.076-3.638s5.488 1.441 7.074 3.638a8.677 8.677 0 0 1 1.652 5.088c0 4.811-3.918 8.725-8.727 8.725-4.812 0-8.726-3.914-8.726-8.725a8.683 8.683 0 0 1 1.651-5.088zm27.033 20.295a4.754 4.754 0 0 1-4.75 4.75H13a4.755 4.755 0 0 1-4.751-4.75V24.53h7.4a13.483 13.483 0 0 0-.998 5.088c0 7.473 6.08 13.557 13.556 13.557 7.475 0 13.555-6.084 13.555-13.557 0-1.799-.361-3.516-1-5.088h7.402v20.295z"/>
    </symbol>
    <symbol id="mastercard_logo" viewBox="0 0 300 180">
      <title>mastercard_logo icon</title>
      <path d="M298.032 90.5c.014 48.936-39.646 88.614-88.582 88.627-48.937.012-88.614-39.646-88.627-88.582V90.5c-.013-48.935 39.647-88.615 88.581-88.628 48.937-.013 88.615 39.647 88.628 88.583v.045z" fill="#f90"/><path d="M90.001 1.895C41.355 2.204 1.967 41.781 1.967 90.5c0 48.909 39.695 88.604 88.605 88.604 22.955 0 43.879-8.748 59.624-23.086l-.007-.004h.019a89.437 89.437 0 0 0 8.995-9.488H141.05a86.536 86.536 0 0 1-6.606-9.127h31.308a88.75 88.75 0 0 0 5.158-9.488h-41.635a87.392 87.392 0 0 1-3.703-9.309h49.045a88.388 88.388 0 0 0 4.56-28.103c0-6.512-.706-12.861-2.042-18.974h-54.164a88.347 88.347 0 0 1 2.528-9.308h49.063a88.618 88.618 0 0 0-3.82-9.487H129.27a85.013 85.013 0 0 1 5.084-9.307h31.285a88.798 88.798 0 0 0-6.877-9.488h-17.443a82.232 82.232 0 0 1 8.889-8.95c-15.746-14.34-36.676-23.09-59.636-23.09h-.571z" fill="#c00"/><path d="M289.143 136.82c.482 0 .951.125 1.409.371.46.246.814.601 1.07 1.062.256.456.384.937.384 1.435 0 .492-.127.968-.379 1.424-.251.455-.605.81-1.061 1.063-.451.249-.928.375-1.424.375s-.972-.126-1.426-.375a2.71 2.71 0 0 1-1.063-1.063 2.908 2.908 0 0 1-.377-1.424c0-.498.127-.979.384-1.435a2.663 2.663 0 0 1 1.071-1.062 2.97 2.97 0 0 1 1.412-.371m0 .475c-.401 0-.793.104-1.176.311-.38.207-.677.5-.891.888a2.378 2.378 0 0 0-.325 1.194c0 .412.106.81.315 1.188.214.377.51.673.888.885.381.211.776.315 1.188.315.414 0 .81-.104 1.189-.315.378-.212.673-.508.884-.885a2.392 2.392 0 0 0-.008-2.382 2.179 2.179 0 0 0-.894-.888 2.402 2.402 0 0 0-1.17-.311m-1.256 3.975v-3.082h1.062c.36 0 .622.028.784.088a.758.758 0 0 1 .388.297.813.813 0 0 1-.098 1.039.949.949 0 0 1-.639.281.896.896 0 0 1 .264.164c.125.12.275.323.455.61l.375.603h-.606l-.272-.485c-.215-.382-.388-.62-.521-.718-.091-.069-.224-.105-.397-.105h-.293v1.311h-.5m.496-1.738h.604c.288 0 .483-.044.588-.129a.421.421 0 0 0 .159-.342.404.404 0 0 0-.075-.244.466.466 0 0 0-.213-.162c-.089-.035-.255-.055-.497-.055h-.564v.932" fill="#fcb340"/><g><path d="M119.975 115.92l1.18-8.02c-.645 0-1.593.279-2.431.279-3.284 0-3.694-1.755-3.436-3.037l3.236-16.13h4.992l1.029-9.103h-4.705l.958-5.516h-9.842c-.208.208-5.568 31.022-5.568 34.776 0 5.555 3.118 8.027 7.516 7.988 3.442-.03 6.125-.982 7.071-1.237zM122.962 100.632c0 13.332 8.799 16.499 16.297 16.499 6.921 0 10.55-1.604 10.55-1.604l1.662-9.1s-5.848 2.378-10.601 2.378c-10.131 0-8.355-7.554-8.355-7.554l19.463.059s1.239-6.111 1.239-8.602c0-6.217-3.387-13.85-13.745-13.85-9.486.003-16.51 10.224-16.51 21.774zm16.546-13.325c5.324 0 4.342 5.984 4.342 6.469h-10.474c0-.62.989-6.47 6.132-6.47zM199.246 115.917l1.689-10.284s-4.632 2.32-7.807 2.32c-6.693 0-9.378-5.11-9.378-10.6 0-11.137 5.758-17.265 12.168-17.265 4.808 0 8.665 2.699 8.665 2.699l1.54-9.993s-4.554-3.29-9.456-3.308c-14.745-.058-23.182 10.208-23.182 27.955 0 11.763 6.248 19.768 17.506 19.768 3.183 0 8.255-1.292 8.255-1.292zM68.086 79.006c-6.47 0-11.427 2.079-11.427 2.079l-1.37 8.127s4.093-1.663 10.28-1.663c3.514 0 6.084.395 6.084 3.25 0 1.734-.314 2.374-.314 2.374s-2.772-.231-4.056-.231c-9.21 0-16.729 3.482-16.729 13.98 0 8.273 5.623 10.17 9.108 10.17 6.657 0 9.292-4.203 9.444-4.215l-.077 3.488h8.307l3.706-25.98c0-11.025-9.616-11.38-12.956-11.38zm1.438 21.096c.18 1.586-.41 9.086-6.092 9.086-2.93 0-3.691-2.24-3.691-3.562 0-2.584 1.403-5.683 8.315-5.683 1.61 0 1.197.116 1.468.159zM89.87 116.9c2.126 0 14.273.54 14.273-11.994 0-11.721-11.244-9.404-11.244-14.114 0-2.342 1.833-3.08 5.184-3.08 1.329 0 6.447.423 6.447.423l1.189-8.33s-3.312-.741-8.704-.741c-6.98 0-14.063 2.786-14.063 12.318 0 10.802 11.812 9.717 11.812 14.267 0 3.037-3.3 3.287-5.844 3.287-4.401 0-8.363-1.511-8.377-1.438l-1.26 8.245c.23.07 2.675 1.157 10.588 1.157zM277.063 71.449l-1.705 12.709s-3.553-4.905-9.112-4.905c-10.459 0-15.849 10.423-15.849 22.396 0 7.73 3.844 15.307 11.699 15.307 5.651 0 8.784-3.941 8.784-3.941l-.415 3.365h9.178l7.207-44.862-9.787-.07zm-4.052 24.7c0 4.984-2.468 11.64-7.581 11.64-3.396 0-4.988-2.85-4.988-7.323 0-7.315 3.285-12.14 7.432-12.14 3.394 0 5.137 2.33 5.137 7.824zM17.005 116.417l5.743-33.87.844 33.87h6.499l12.125-33.87-5.371 33.87h9.658l7.437-44.922-15.342-.117-9.126 27.504-.25-27.387h-14.06l-7.544 44.922h9.387z" fill="#006"/><path d="M162.357 116.48c2.746-15.614 3.724-27.946 11.732-25.392 1.15-6.044 3.891-11.3 5.143-13.858 0 0-.396-.59-2.871-.59-4.225 0-9.866 8.575-9.866 8.575l.843-5.301h-8.786l-5.884 36.566h9.689zM219.006 79.006c-6.472 0-11.43 2.079-11.43 2.079l-1.369 8.127s4.095-1.663 10.28-1.663c3.514 0 6.083.395 6.083 3.25 0 1.734-.313 2.374-.313 2.374s-2.77-.231-4.055-.231c-9.21 0-16.729 3.482-16.729 13.98 0 8.273 5.622 10.17 9.107 10.17 6.655 0 9.292-4.203 9.443-4.215l-.078 3.488h8.31l3.704-25.98c.001-11.025-9.615-11.38-12.953-11.38zm1.436 21.096c.18 1.586-.411 9.086-6.092 9.086-2.932 0-3.692-2.24-3.692-3.562 0-2.584 1.402-5.683 8.315-5.683 1.611 0 1.199.116 1.469.159zM241.522 116.48c1.508-11.487 4.299-27.615 11.731-25.392 1.149-6.044.041-6.028-2.433-6.028-4.228 0-5.164.154-5.164.154l.844-5.301h-8.785l-5.884 36.567h9.69z" fill="#006"/><g><path d="M122.434 113.059l1.181-8.019c-.645 0-1.594.276-2.431.276-3.284 0-3.646-1.746-3.437-3.037l2.653-16.362h4.991l1.205-8.87h-4.706l.958-5.516h-9.434c-.208.208-5.569 31.023-5.569 34.775 0 5.555 3.119 8.029 7.517 7.989 3.444-.029 6.126-.982 7.072-1.236zM125.423 97.77c0 13.332 8.8 16.5 16.297 16.5 6.92 0 9.965-1.547 9.965-1.547l1.662-9.099s-5.264 2.319-10.018 2.319c-10.13 0-8.356-7.553-8.356-7.553h19.172s1.238-6.113 1.238-8.604c0-6.216-3.094-13.79-13.452-13.79-9.486.002-16.508 10.223-16.508 21.774zm16.544-13.325c5.324 0 4.342 5.983 4.342 6.467h-10.474c0-.618.99-6.467 6.132-6.467zM201.707 113.055l1.688-10.285s-4.629 2.321-7.806 2.321c-6.692 0-9.376-5.11-9.376-10.6 0-11.137 5.758-17.264 12.168-17.264 4.807 0 8.665 2.699 8.665 2.699l1.54-9.993s-5.721-2.315-10.625-2.315c-10.891 0-21.486 9.448-21.486 27.192 0 11.766 5.721 19.537 16.979 19.537 3.183.001 8.253-1.292 8.253-1.292zM70.547 76.143c-6.469 0-11.428 2.079-11.428 2.079l-1.369 8.127s4.093-1.663 10.28-1.663c3.513 0 6.083.395 6.083 3.25 0 1.734-.315 2.374-.315 2.374s-2.771-.232-4.054-.232c-8.159 0-16.73 3.482-16.73 13.98 0 8.272 5.623 10.17 9.108 10.17 6.656 0 9.525-4.319 9.678-4.332l-.311 3.605h8.307l3.706-25.981c0-11.022-9.615-11.377-12.955-11.377zm2.021 21.154c.18 1.587-.995 9.026-6.675 9.026-2.93 0-3.692-2.238-3.692-3.562 0-2.582 1.403-5.682 8.316-5.682 1.608.002 1.78.174 2.051.218zM92.331 114.038c2.125 0 14.273.54 14.273-11.995 0-11.719-11.245-9.404-11.245-14.112 0-2.344 1.833-3.082 5.183-3.082 1.33 0 6.447.423 6.447.423l1.19-8.33c0 .001-3.312-.741-8.704-.741-6.979 0-14.063 2.786-14.063 12.318 0 10.801 11.812 9.717 11.812 14.267 0 3.037-3.3 3.284-5.843 3.284-4.401 0-8.364-1.51-8.378-1.438l-1.258 8.246c.228.07 2.672 1.16 10.586 1.16zM279.852 68.668l-2.035 12.627s-3.551-4.905-9.11-4.905c-8.644 0-15.849 10.422-15.849 22.397 0 7.73 3.843 15.304 11.699 15.304 5.651 0 8.784-3.94 8.784-3.94l-.415 3.365h9.176l7.207-44.863-9.457.015zm-4.381 24.62c0 4.983-2.467 11.639-7.582 11.639-3.395 0-4.986-2.85-4.986-7.323 0-7.314 3.285-12.14 7.43-12.14 3.396-.001 5.138 2.332 5.138 7.824zM19.466 113.555l5.743-33.87.843 33.87h6.5l12.125-33.87-5.371 33.87h9.658l7.438-44.923H41.467l-9.301 27.563-.484-27.563H17.915l-7.545 44.923h9.096zM164.818 113.617c2.746-15.616 3.255-28.296 9.808-25.975 1.147-6.044 2.254-8.382 3.506-10.94 0 0-.587-.123-1.819-.123-4.225 0-7.355 5.772-7.355 5.772l.841-5.301h-8.784l-5.885 36.567h9.688zM223.475 76.143c-6.469 0-11.428 2.079-11.428 2.079l-1.368 8.127s4.093-1.663 10.28-1.663c3.513 0 6.081.395 6.081 3.25 0 1.734-.313 2.374-.313 2.374s-2.77-.232-4.055-.232c-8.158 0-16.729 3.482-16.729 13.98 0 8.272 5.622 10.17 9.107 10.17 6.656 0 9.525-4.319 9.677-4.332l-.309 3.605h8.307l3.705-25.981c.001-11.022-9.615-11.377-12.955-11.377zm2.024 21.154c.18 1.587-.996 9.026-6.678 9.026-2.93 0-3.69-2.238-3.69-3.562 0-2.582 1.403-5.682 8.315-5.682 1.608.002 1.78.174 2.053.218zM244.023 113.617c2.747-15.616 3.256-28.296 9.807-25.975 1.149-6.044 2.257-8.382 3.508-10.94 0 0-.587-.123-1.82-.123-4.224 0-7.354 5.772-7.354 5.772l.84-5.301h-8.783l-5.885 36.567h9.687zM289.105 107.975c.479 0 .951.123 1.406.373.459.242.816.598 1.072 1.059.257.458.383.935.383 1.434 0 .493-.126.969-.379 1.424a2.655 2.655 0 0 1-1.059 1.063c-.454.25-.93.376-1.424.376-.498 0-.974-.126-1.429-.376a2.678 2.678 0 0 1-1.058-1.063 2.865 2.865 0 0 1-.381-1.424c0-.499.127-.976.384-1.434a2.63 2.63 0 0 1 1.073-1.059c.461-.25.933-.373 1.412-.373m0 .472c-.401 0-.793.104-1.176.313a2.183 2.183 0 0 0-.894.885c-.214.381-.322.78-.322 1.194s.104.81.313 1.188c.213.377.509.673.891.886.378.208.773.313 1.188.313.412 0 .81-.105 1.188-.313.378-.213.674-.509.884-.886.211-.381.314-.774.314-1.188s-.107-.813-.321-1.194a2.16 2.16 0 0 0-.894-.885 2.408 2.408 0 0 0-1.171-.313m-1.255 3.976v-3.083h1.061c.361 0 .625.029.785.088a.756.756 0 0 1 .388.297.784.784 0 0 1 .146.451.817.817 0 0 1-.244.588.934.934 0 0 1-.637.28.946.946 0 0 1 .262.163c.123.122.275.326.455.611l.377.604h-.609l-.271-.485c-.216-.383-.389-.621-.521-.718-.091-.071-.224-.106-.399-.106h-.291v1.311l-.502-.001m.498-1.735h.604c.289 0 .484-.043.588-.129a.418.418 0 0 0 .16-.342.404.404 0 0 0-.075-.242.458.458 0 0 0-.213-.164c-.091-.035-.254-.053-.498-.053h-.565v.93" fill="#fff"/></g></g>
    </symbol>
    <symbol id="pinterest" viewBox="0 0 56.693 56.693">
      <title>pinterest icon</title>
      <path d="M28.348 5.158c-13.599 0-24.625 11.023-24.625 24.625 0 10.082 6.063 18.744 14.739 22.553-.069-1.721-.012-3.783.429-5.654l3.168-13.418s-.787-1.572-.787-3.896c0-3.648 2.115-6.373 4.749-6.373 2.24 0 3.322 1.682 3.322 3.695 0 2.252-1.437 5.619-2.175 8.738-.616 2.613 1.31 4.744 3.887 4.744 4.665 0 7.808-5.992 7.808-13.092 0-5.397-3.635-9.437-10.246-9.437-7.47 0-12.123 5.57-12.123 11.792 0 2.146.633 3.658 1.624 4.83.455.537.519.754.354 1.371-.118.453-.389 1.545-.501 1.977-.164.625-.669.848-1.233.617-3.44-1.404-5.043-5.172-5.043-9.408 0-6.994 5.899-15.382 17.599-15.382 9.4 0 15.588 6.804 15.588 14.107 0 9.658-5.369 16.875-13.285 16.875-2.659 0-5.16-1.438-6.016-3.068 0 0-1.43 5.674-1.732 6.768-.522 1.9-1.545 3.797-2.479 5.275a24.595 24.595 0 0 0 6.979 1.01c13.598 0 24.623-11.023 24.623-24.623-.001-13.603-11.027-24.626-24.624-24.626z"/>
    </symbol>
    <symbol id="rss" viewBox="0 0 56.693 56.693">
      <title>rss icon</title>
      <path d="M3.428 31.085c6.19 0 12.009 2.418 16.382 6.816 4.381 4.398 6.793 10.256 6.793 16.492h9.539c0-18.113-14.676-32.848-32.714-32.848v9.54zm.015-16.911c22.061 0 40.01 18.047 40.01 40.231h9.539c0-27.445-22.229-49.77-49.549-49.77v9.539zm13.191 33.567a6.608 6.608 0 0 1-13.214 0 6.608 6.608 0 0 1 13.214 0z"/>
    </symbol>
    <symbol id="support-aircraft" viewBox="0 0 38 38">
      <title>support-aircraft icon</title>
      <path fill="#fff" d="M23.92 7.96c2.58-2.49 4.95-5.38 8.27-6.89 1.74-.68 4.29-1.2 5.27.91.5 5.27-4.3 8.62-7.54 11.98 1.5 6.38 2.92 12.79 4.42 19.17-1.47 1.19-2.96 2.36-4.47 3.5-2.91-4.73-5.52-9.63-8.1-14.54-2.28 2.39-4.53 4.81-6.87 7.14.48 1.87.95 3.74 1.46 5.6-1.11 1.06-2.2 2.13-3.32 3.17h-.53c-1.87-2.29-3.45-4.81-5.47-6.97-2.17-2.05-4.72-3.65-7.04-5.52v-.56c1.05-1.12 2.12-2.21 3.19-3.32 1.91.53 3.82 1.04 5.73 1.55 2.33-2.32 4.65-4.64 6.96-6.97-4.89-2.61-9.79-5.23-14.55-8.1C2.79 6.6 4.28 5.1 5.77 3.62c6.04 1.49 12.1 2.93 18.15 4.34z"/>
    </symbol>
    <symbol id="support-time" viewBox="0 0 41 42">
      <title>support-time icon</title>
      <g fill="#fff"><path d="M9.54 3.49c6.5-4.24 15.48-4.26 21.97.03 5.53 3.42 8.97 9.63 9.49 16.06v2.87c-.75 9.48-8.56 17.93-18.13 18.84C11.63 42.87.66 33.61 0 22.33v-2.81C.55 13.09 4 6.9 9.54 3.49m7.9 3.13C9.77 8.14 4.35 16.55 6.37 24.16c1.58 7.62 10.01 12.98 17.56 10.86 7.41-1.63 12.51-9.72 10.77-17.11-1.37-7.65-9.67-13.19-17.26-11.29z"/><path d="M20.53 10.68c.87-.02 2.61-.05 3.47-.07-.02 4.52.05 9.04-.06 13.56-3.37.14-6.74.09-10.12.11-.01-.85-.05-2.55-.06-3.39 2.25-.16 4.52-.18 6.78-.17-.02-3.35 0-6.7-.01-10.04z"/></g>
    </symbol>
    <symbol id="support-wheel" viewBox="0 0 48 49">
      <title>support-wheel icon</title>
      <path fill="#fff" d="M24.31 0h.4c-.15.2-.45.6-.6.79C36.52.56 47.44 11.18 48 23.48v2.97c-.66 6.43-3.48 12.76-8.55 16.9-6.64 5.67-16.48 6.99-24.49 3.63C6.66 43.71.77 35.49 0 26.65v-3.44C.76 11.43 11.24.99 23.17 1.06c.28-.27.85-.8 1.14-1.06m-9.48 6.44c1.22 2.15 3.23 3.65 4.96 5.35 2.98-.75 6.08-.68 9.07-.03 1.72-1.69 3.42-3.4 5.12-5.12-5.97-3.07-13.12-3.06-19.15-.2m6.25 8.65c-7.1 1.95-9.59 12.06-4.08 16.99 4.93 5.54 15.09 3.02 17.06-4.07 2.88-7.48-5.49-15.92-12.98-12.92m16.36 5.19c.39 3.01.85 6.07-.15 9.06 1.8 1.75 3.38 3.71 5.27 5.37 2.38-6.32 2.81-13.4-.27-19.58-1.67 1.67-3.33 3.34-4.85 5.15M5.87 15.11c-3.09 5.97-3.3 13.24-.07 19.19 2.02-1.43 3.82-3.15 5.45-5.02-.91-2.93-.97-6.04-.02-8.97-1.76-1.76-3.53-3.52-5.36-5.2m8.89 28.07c6.02 3.05 13.22 2.95 19.22-.1-1.73-1.72-3.44-3.45-5.19-5.16-2.96.77-6.07.76-9.04.01-1.74 1.67-3.55 3.3-4.99 5.25z"/>
    </symbol>
    <symbol id="telephone" viewBox="0 0 512 512">
      <title>telephone icon</title>
      <path d="M415.9 335.5c-14.6-15-56.1-43.1-83.3-43.1-6.3 0-11.8 1.4-16.3 4.3-13.3 8.5-23.9 15.1-29 15.1-2.8 0-5.8-2.5-12.4-8.2l-1.1-1c-18.3-15.9-22.2-20-29.3-27.4l-1.8-1.9c-1.3-1.3-2.4-2.5-3.5-3.6-6.2-6.4-10.7-11-26.6-29l-.7-.8c-7.6-8.6-12.6-14.2-12.9-18.3-.3-4 3.2-10.5 12.1-22.6 10.8-14.6 11.2-32.6 1.3-53.5-7.9-16.5-20.8-32.3-32.2-46.2l-1-1.2c-9.8-12-21.2-18-33.9-18-14.1 0-25.8 7.6-32 11.6-.5.3-1 .7-1.5 1-13.9 8.8-24 20.9-27.8 33.2-5.7 18.5-9.5 42.5 17.8 92.4 23.6 43.2 45 72.2 79 107.1 32 32.8 46.2 43.4 78 66.4 35.4 25.6 69.4 40.3 93.2 40.3 22.1 0 39.5 0 64.3-29.9 26-31.4 15.2-50.6-.4-66.7z"/>
    </symbol>
    <symbol id="twitter" viewBox="0 0 56.693 56.693">
      <title>twitter icon</title>
      <path d="M52.837 15.065a20.11 20.11 0 0 1-5.805 1.591 10.125 10.125 0 0 0 4.444-5.592 20.232 20.232 0 0 1-6.418 2.454 10.093 10.093 0 0 0-7.377-3.192c-5.581 0-10.106 4.525-10.106 10.107 0 .791.089 1.562.262 2.303-8.4-.422-15.848-4.445-20.833-10.56a10.055 10.055 0 0 0-1.368 5.082c0 3.506 1.784 6.6 4.496 8.412a10.078 10.078 0 0 1-4.578-1.265l-.001.128c0 4.896 3.484 8.98 8.108 9.91a10.162 10.162 0 0 1-4.565.172c1.287 4.015 5.019 6.938 9.441 7.019a20.276 20.276 0 0 1-12.552 4.327c-.815 0-1.62-.048-2.411-.142a28.6 28.6 0 0 0 15.493 4.541c18.591 0 28.756-15.4 28.756-28.756 0-.438-.009-.875-.028-1.309a20.47 20.47 0 0 0 5.042-5.23z"/>
    </symbol>
    <symbol id="visa_logo" viewBox="0 0 282 92.637756">
      <title>visa_logo icon</title>
      <g><path d="M184.19.983c-22.429 0-38.184 11.924-38.323 28.974-.142 12.631 11.267 19.674 19.848 23.872 8.853 4.292 11.81 7.05 11.781 10.89-.088 5.884-7.084 8.565-13.585 8.565-9.063 0-13.895-1.323-21.322-4.59l-2.945-1.4-3.172 19.652c5.303 2.445 15.095 4.564 25.275 4.675 23.801 0 39.287-11.787 39.471-29.987.094-10.018-5.962-17.6-19.056-23.86-7.904-4.07-12.792-6.77-12.719-10.893.006-3.644 4.101-7.55 12.991-7.55 7.425-.125 12.764 1.58 16.968 3.375l2.022 1.009 3.085-19.036c-4.48-1.77-11.55-3.695-20.32-3.695zm-70.41 1.532L99.594 90.323h22.665l14.194-87.81h-22.67zM80.575 2.6L58.381 62.444l-2.366-12.16c-5.527-14.911-17.492-30.552-31.426-36.891l20.302 76.846 24-.011L104.581 2.6H80.575zm164.57.006c-5.43 0-9.5 1.547-11.897 7.288l-33.657 80.458h23.813s3.893-10.83 4.774-13.201c2.599 0 25.727.05 29.027.05.701 3.061 2.76 13.15 2.76 13.15h21.056L262.66 2.606h-17.515zm1.602 23.673l1.51 7.57s4.358 20.95 5.267 25.338h-18.822c1.883-5.038 9.032-24.544 9.032-24.544-.14.239 1.86-5.079 3.013-8.365z" fill="#0023a0"/><path d="M37.798 2.554H1.23l-.213 1.51c28.431 7.272 47.188 25.128 54.998 46.243L48.068 9.95c-1.366-5.55-5.345-7.2-10.27-7.396" fill="#ffab00"/></g>
    </symbol></svg>